<svg width="64" height="64" viewBox="0 0 64 64" fill="none" xmlns="http://www.w3.org/2000/svg">
<path d="M23 51.5455L23 59.3031L3 59.3031L3 51.5455" stroke="#C4C4C4" stroke-width="3"/>
<path d="M23 18.5759L23 26.3334L3 26.3334L3 18.5759" stroke="#DB2223" stroke-width="3"/>
<path d="M23 45.7274L23 37.9698L3 37.9698L3 45.7274" stroke="#C4C4C4" stroke-width="3"/>
<path d="M23 12.7577L23 5.00008L3 5.00008L3 12.7577" stroke="#C4C4C4" stroke-width="3"/>
<path d="M60 51.5455L60 59.3031L40 59.3031L40 51.5455" stroke="#C4C4C4" stroke-width="3"/>
<path d="M60 18.5759L60 26.3334L40 26.3334L40 18.5759" stroke="#C4C4C4" stroke-width="3"/>
<path d="M60 45.7274L60 37.9698L40 37.9698L40 45.7274" stroke="#DB2223" stroke-width="3"/>
<path d="M60 12.7577L60 5.00008L40 5.00008L40 12.7577" stroke="#C4C4C4" stroke-width="3"/>
</svg>
