<?xml version="1.0" encoding="utf-8"?>
<!-- Generator: Adobe Illustrator 22.1.0, SVG Export Plug-In . SVG Version: 6.00 Build 0)  -->
<svg version="1.1" id="Layer_1" xmlns="http://www.w3.org/2000/svg" xmlns:xlink="http://www.w3.org/1999/xlink" x="0px" y="0px"
	 viewBox="0 0 66 50" style="enable-background:new 0 0 66 50;" xml:space="preserve">
<style type="text/css">
	.st0{fill:#FFD600;}
</style>
<path class="st0" d="M14.8,49.3c-3.8,0-7.2-1.3-10-4c-2.7-2.8-4-6.2-4-10c0-3.7,1.3-8,4-13c1.8-3.5,4.3-7.7,7.5-12.5
	c3.3-5,5.6-8.3,6.8-9.8h8c-0.3,1-1.1,3-2.3,6c-1,2.8-2.2,5.8-3.5,9c-0.5,1-0.8,2.3-0.8,3.8c0,1.7,0.7,3.2,2,4.5
	c4.2,3.3,6.3,7.3,6.3,12c0,3.8-1.4,7.2-4.3,10C21.8,47.9,18.6,49.3,14.8,49.3z M51.3,49.3c-3.8,0-7.2-1.3-10-4c-2.7-2.8-4-6.2-4-10
	c0-3.7,1.3-8,4-13c1.8-3.5,4.3-7.7,7.5-12.5c3.3-5,5.6-8.3,6.8-9.8h8c-0.3,1-1.1,3-2.3,6c-1,2.8-2.2,5.8-3.5,9
	c-0.5,1-0.8,2.3-0.8,3.8c0,1.7,0.7,3.2,2,4.5c4.2,3.3,6.3,7.3,6.3,12c0,3.8-1.4,7.2-4.3,10C58.3,47.9,55.1,49.3,51.3,49.3z"/>
</svg>
