<?xml version="1.0" encoding="utf-8"?>
<!-- Generator: Adobe Illustrator 22.1.0, SVG Export Plug-In . SVG Version: 6.00 Build 0)  -->
<svg version="1.1" id="Layer_1" xmlns="http://www.w3.org/2000/svg" xmlns:xlink="http://www.w3.org/1999/xlink" x="0px" y="0px"
	 viewBox="0 0 16 18" style="enable-background:new 0 0 16 18;" xml:space="preserve">
<g>
	<path d="M15,0.5H1c-0.6,0-1,0.4-1,1v14c0,0.6,0.4,1,1,1h7.4V11H6.2V8.1h2.1V6.4C8.4,4.2,9.6,3,11.5,3c0.9,0,1.8,0.1,1.8,0.1v2.1
		h-1.1c-1.1,0-1.1,0.7-1.1,1.5v1.4h2.3L13.2,11h-2v5.5H15c0.6,0,1-0.4,1-1v-14C16,0.9,15.6,0.5,15,0.5z"/>
</g>
</svg>
