<svg width="15" height="16" viewBox="0 0 15 16" fill="none" xmlns="http://www.w3.org/2000/svg">
<path fill-rule="evenodd" clip-rule="evenodd" d="M14.6405 15.0297H11.7124V9.90618C11.7124 8.50068 11.0924 7.71667 9.98042 7.71667C8.77037 7.71667 8.05226 8.53362 8.05226 9.90618V15.0297H5.12415V5.51326H8.05226V6.58349C8.05226 6.58349 8.97095 4.97156 11.0411 4.97156C13.112 4.97156 14.6405 6.23504 14.6405 8.84986C14.6405 11.4639 14.6405 15.0297 14.6405 15.0297ZM1.7876 3.99121C0.8001 3.99121 0 3.18452 0 2.1897C0 1.19561 0.8001 0.388916 1.7876 0.388916C2.77436 0.388916 3.57446 1.19561 3.57446 2.1897C3.57519 3.18452 2.77436 3.99121 1.7876 3.99121ZM0 15.0295H3.66016V5.51318H0V15.0295Z" fill="#000000"/>
</svg>
