<svg width="130" height="69" viewBox="0 0 130 69" fill="none" xmlns="http://www.w3.org/2000/svg">
<path d="M8.23893 51.9135C10.6213 51.9135 12.5404 51.2352 13.9962 49.8786C15.6507 48.2904 16.4779 46.1231 16.4779 43.3768V41.193C16.4779 38.0165 15.2536 35.3364 12.8051 33.1526C12.1433 32.557 10.9521 31.796 9.23157 30.8695C8.27202 30.3401 7.6268 29.9431 7.29592 29.6783C6.07166 28.5864 5.45953 27.2795 5.45953 25.7574V24.9137C5.45953 23.7225 5.70769 22.8953 6.20401 22.4321C6.63416 22.035 7.31246 21.8365 8.23893 21.8365C9.19848 21.8365 9.87679 22.035 10.2738 22.4321C10.7702 22.8622 11.0183 23.6894 11.0183 24.9137V27.9412H16.4779V24.9137C16.4779 22.1674 15.6507 20.0001 13.9962 18.4119C12.5404 17.0553 10.6213 16.377 8.23893 16.377C5.85659 16.377 3.93748 17.0553 2.4816 18.4119C0.827201 20.0001 0 22.1674 0 24.9137V25.7574C0 27.3126 0.314337 28.7684 0.94301 30.125C1.57168 31.4816 2.4816 32.6894 3.67277 33.7482C4.40071 34.3769 5.54225 35.1048 7.09739 35.932C8.22238 36.5607 8.91723 36.9908 9.18194 37.2224C10.4062 38.3474 11.0183 39.6709 11.0183 41.193V43.3768C11.0183 44.6011 10.7702 45.4283 10.2738 45.8584C9.87679 46.2555 9.19848 46.454 8.23893 46.454C7.31246 46.454 6.63416 46.2555 6.20401 45.8584C5.70769 45.3952 5.45953 44.568 5.45953 43.3768V38.8603H0V43.3768C0 46.1231 0.827201 48.2904 2.4816 49.8786C3.93748 51.2352 5.85659 51.9135 8.23893 51.9135Z" fill="white"/>
<path d="M25.108 16.774H19.6485V51.5165H25.108V16.774Z" fill="white"/>
<path d="M36.8922 51.9135C39.2745 51.9135 41.1936 51.2352 42.6495 49.8786C44.3039 48.2904 45.1311 46.1231 45.1311 43.3768V31.4155H36.9418V36.875H39.6715V43.3768C39.6715 44.6011 39.4399 45.4283 38.9767 45.8584C38.5466 46.2555 37.8517 46.454 36.8922 46.454C35.9657 46.454 35.2874 46.2555 34.8572 45.8584C34.3609 45.3952 34.1128 44.568 34.1128 43.3768V24.9137C34.1128 23.7225 34.3609 22.8953 34.8572 22.4321C35.2874 22.035 35.9657 21.8365 36.8922 21.8365C37.8517 21.8365 38.5466 22.035 38.9767 22.4321C39.4399 22.8622 39.6715 23.6894 39.6715 24.9137V27.9909H45.1311V24.9137C45.1311 22.1674 44.3039 20.0001 42.6495 18.4119C41.1936 17.0553 39.2745 16.377 36.8922 16.377C34.576 16.377 32.6569 17.0553 31.1348 18.4119C29.4804 20.0663 28.6532 22.2335 28.6532 24.9137V43.3768C28.6532 46.0569 29.4804 48.2242 31.1348 49.8786C32.6569 51.2352 34.576 51.9135 36.8922 51.9135Z" fill="white"/>
<path d="M65.457 51.5165H62.2805L53.9423 33.8971V51.5165H48.4828V16.774H51.6592L59.9974 34.3438V16.774H65.457V51.5165Z" fill="white"/>
<path d="M74.6916 22.2335V30.9688H80.846V36.4283H74.6916V46.0569H83.6254V51.5165H69.2321V16.774H83.6254V22.2335H74.6916Z" fill="white"/>
<path d="M102.108 22.2335H96.5495V51.5165H91.09V22.2335H85.5312V16.774H102.108V22.2335Z" fill="white"/>
<path d="M109.977 16.774H104.517V51.5165H109.977V16.774Z" fill="white"/>
<path d="M121.761 51.9135C124.143 51.9135 126.063 51.2352 127.518 49.8786C129.173 48.2904 130 46.1231 130 43.3768V38.9099H124.54V43.3768C124.54 44.6011 124.309 45.4283 123.846 45.8584C123.415 46.2555 122.721 46.454 121.761 46.454C120.835 46.454 120.156 46.2555 119.726 45.8584C119.23 45.3952 118.982 44.568 118.982 43.3768V24.9137C118.982 23.7225 119.23 22.8953 119.726 22.4321C120.156 22.035 120.835 21.8365 121.761 21.8365C122.721 21.8365 123.415 22.035 123.846 22.4321C124.309 22.8622 124.54 23.6894 124.54 24.9137V27.9909H130V24.9137C130 22.1674 129.173 20.0001 127.518 18.4119C126.063 17.0553 124.143 16.377 121.761 16.377C119.445 16.377 117.526 17.0553 116.004 18.4119C114.349 20.0663 113.522 22.2335 113.522 24.9137V43.3768C113.522 46.0569 114.349 48.2242 116.004 49.8786C117.526 51.2352 119.445 51.9135 121.761 51.9135Z" fill="white"/>
<path d="M109.977 55.262H104.518V68.2904H109.977V55.262Z" fill="#DB2223"/>
<path d="M25.108 55.262H19.6484V68.2904H25.108V55.262Z" fill="#DB2223"/>
<path d="M109.977 68.2903L109.977 62.8308L19.6481 62.8308L19.6481 68.2903L109.977 68.2903Z" fill="#DB2223"/>
<path d="M109.977 13.0286H104.518V0.000139236H109.977V13.0286Z" fill="#DB2223"/>
<path d="M25.108 13.0286H19.6484V0.000148773H25.108V13.0286Z" fill="#DB2223"/>
<path d="M109.977 0.000185966L109.977 5.45972L19.6481 5.45972L19.6481 0.000189915L109.977 0.000185966Z" fill="#DB2223"/>
</svg>
