<svg width="66" height="50" viewBox="0 0 66 50" fill="none" xmlns="http://www.w3.org/2000/svg">
<path d="M14.75 49.25C10.9167 49.25 7.58333 47.9167 4.75 45.25C2.08333 42.4167 0.75 39.0833 0.75 35.25C0.75 31.5833 2.08333 27.25 4.75 22.25C6.58333 18.75 9.08333 14.5833 12.25 9.75C15.5833 4.74999 17.8333 1.49999 19 -1.19209e-05H27C26.6667 0.999995 25.9167 2.99999 24.75 5.99999C23.75 8.83332 22.5833 11.8333 21.25 15C20.75 16 20.5 17.25 20.5 18.75C20.5 20.4167 21.1667 21.9167 22.5 23.25C26.6667 26.5833 28.75 30.5833 28.75 35.25C28.75 39.0833 27.3333 42.4167 24.5 45.25C21.8333 47.9167 18.5833 49.25 14.75 49.25ZM51.25 49.25C47.4167 49.25 44.0833 47.9167 41.25 45.25C38.5833 42.4167 37.25 39.0833 37.25 35.25C37.25 31.5833 38.5833 27.25 41.25 22.25C43.0833 18.75 45.5833 14.5833 48.75 9.75C52.0833 4.74999 54.3333 1.49999 55.5 -1.19209e-05H63.5C63.1667 0.999995 62.4167 2.99999 61.25 5.99999C60.25 8.83332 59.0833 11.8333 57.75 15C57.25 16 57 17.25 57 18.75C57 20.4167 57.6667 21.9167 59 23.25C63.1667 26.5833 65.25 30.5833 65.25 35.25C65.25 39.0833 63.8333 42.4167 61 45.25C58.3333 47.9167 55.0833 49.25 51.25 49.25Z" fill="#FFD600"/>
</svg>
